# xmcd
#
# Track frame offsets: 
#        150
#        15451
#        29536
#        50948
#        67008
#        85517
#        106802
#        121741
#        139190
#        153954
#
# Disc length: 2291 seconds
#
# Revision: 0
# Processed by: cddbd v1.5.2PL0 Copyright (c) Steve Scherf et al.
# Submitted via: ExactAudioCopy v1.0b3
#
DISCID=7c08f10a
DTITLE=Julian Austin - One for One
DYEAR=2009
DGENRE=Country
TTITLE0=Fat Bottomed Girls
TTITLE1=If Houston Doesn't Want You
TTITLE2=Islands in the Stream
TTITLE3=I Am Who I Am
TTITLE4=Maggie May
TTITLE5=Goodbye Exit Sign
TTITLE6=Burning Love
TTITLE7=She Knows About Cryin'
TTITLE8=Legs
TTITLE9=Brake Lights
EXTD=
EXTT0=
EXTT1=
EXTT2=
EXTT3=
EXTT4=
EXTT5=
EXTT6=
EXTT7=
EXTT8=
EXTT9=
PLAYORDER=
